<mxfile host="app.diagrams.net" agent="Mozilla/5.0 (Windows NT 10.0; Win64; x64) AppleWebKit/537.36 (KHTML, like Gecko) Chrome/135.0.0.0 Safari/537.36 Edg/135.0.0.0" version="26.2.14">
  <diagram name="Page-1" id="crjWT-zu2yd3MlbxviBJ">
    <mxGraphModel dx="1837" dy="1949" grid="1" gridSize="10" guides="1" tooltips="1" connect="1" arrows="1" fold="1" page="1" pageScale="1" pageWidth="827" pageHeight="1169" math="0" shadow="0">
      <root>
        <mxCell id="0" />
        <mxCell id="1" parent="0" />
        <mxCell id="qKud7y2XaxuHcWD2_8YC-30" value="" style="rounded=0;whiteSpace=wrap;html=1;fillColor=#dae8fc;strokeColor=#6c8ebf;" parent="1" vertex="1">
          <mxGeometry x="630" y="420" width="180" height="160" as="geometry" />
        </mxCell>
        <mxCell id="qKud7y2XaxuHcWD2_8YC-26" value="" style="rounded=0;whiteSpace=wrap;html=1;fillColor=#ffe6cc;strokeColor=#d79b00;" parent="1" vertex="1">
          <mxGeometry x="120" y="105" width="450" height="335" as="geometry" />
        </mxCell>
        <mxCell id="qKud7y2XaxuHcWD2_8YC-8" value="&lt;div&gt;BATTERIJ&lt;/div&gt;VOEDING (3.3V)" style="rounded=1;whiteSpace=wrap;html=1;" parent="1" vertex="1">
          <mxGeometry x="180" y="250" width="120" height="60" as="geometry" />
        </mxCell>
        <mxCell id="qKud7y2XaxuHcWD2_8YC-38" style="edgeStyle=orthogonalEdgeStyle;rounded=0;orthogonalLoop=1;jettySize=auto;html=1;exitX=0.5;exitY=1;exitDx=0;exitDy=0;entryX=0.5;entryY=0;entryDx=0;entryDy=0;" parent="1" source="qKud7y2XaxuHcWD2_8YC-9" target="qKud7y2XaxuHcWD2_8YC-37" edge="1">
          <mxGeometry relative="1" as="geometry" />
        </mxCell>
        <mxCell id="qKud7y2XaxuHcWD2_8YC-39" value="Digitale PIN(write)" style="edgeLabel;html=1;align=center;verticalAlign=middle;resizable=0;points=[];" parent="qKud7y2XaxuHcWD2_8YC-38" vertex="1" connectable="0">
          <mxGeometry x="-0.1145" relative="1" as="geometry">
            <mxPoint as="offset" />
          </mxGeometry>
        </mxCell>
        <mxCell id="qKud7y2XaxuHcWD2_8YC-41" style="edgeStyle=orthogonalEdgeStyle;rounded=0;orthogonalLoop=1;jettySize=auto;html=1;exitX=0.75;exitY=1;exitDx=0;exitDy=0;entryX=0;entryY=0.25;entryDx=0;entryDy=0;" parent="1" source="qKud7y2XaxuHcWD2_8YC-9" target="qKud7y2XaxuHcWD2_8YC-31" edge="1">
          <mxGeometry relative="1" as="geometry">
            <mxPoint x="520" y="299.9999999999999" as="sourcePoint" />
            <mxPoint x="680" y="494.9999999999999" as="targetPoint" />
            <Array as="points">
              <mxPoint x="470" y="310" />
              <mxPoint x="540" y="310" />
              <mxPoint x="540" y="495" />
            </Array>
          </mxGeometry>
        </mxCell>
        <mxCell id="qKud7y2XaxuHcWD2_8YC-42" value="voeding" style="edgeLabel;html=1;align=center;verticalAlign=middle;resizable=0;points=[];" parent="qKud7y2XaxuHcWD2_8YC-41" vertex="1" connectable="0">
          <mxGeometry x="0.4165" y="2" relative="1" as="geometry">
            <mxPoint x="-8" y="-103" as="offset" />
          </mxGeometry>
        </mxCell>
        <mxCell id="qKud7y2XaxuHcWD2_8YC-9" value="FireBeetle ESP32&lt;span style=&quot;background-color: transparent; color: light-dark(rgb(0, 0, 0), rgb(255, 255, 255));&quot;&gt;-E&lt;/span&gt;" style="rounded=1;whiteSpace=wrap;html=1;" parent="1" vertex="1">
          <mxGeometry x="380" y="240" width="120" height="60" as="geometry" />
        </mxCell>
        <mxCell id="qKud7y2XaxuHcWD2_8YC-10" value="Temperatuursensor" style="rounded=1;whiteSpace=wrap;html=1;" parent="1" vertex="1">
          <mxGeometry x="380" y="130" width="120" height="40" as="geometry" />
        </mxCell>
        <mxCell id="qKud7y2XaxuHcWD2_8YC-12" value="" style="rounded=0;whiteSpace=wrap;html=1;fillColor=#fff2cc;strokeColor=#d6b656;" parent="1" vertex="1">
          <mxGeometry x="630" y="40" width="180" height="300" as="geometry" />
        </mxCell>
        <mxCell id="qKud7y2XaxuHcWD2_8YC-13" value="BLOEMPOT" style="text;html=1;align=center;verticalAlign=middle;whiteSpace=wrap;rounded=0;" parent="1" vertex="1">
          <mxGeometry x="640" y="60" width="60" height="30" as="geometry" />
        </mxCell>
        <mxCell id="qKud7y2XaxuHcWD2_8YC-16" value="Resistieve BVH&amp;nbsp;&lt;span style=&quot;background-color: transparent; color: light-dark(rgb(0, 0, 0), rgb(255, 255, 255));&quot;&gt;sensor&lt;/span&gt;&lt;div&gt;&lt;span style=&quot;background-color: transparent; color: light-dark(rgb(0, 0, 0), rgb(255, 255, 255));&quot;&gt;SEN0114&lt;/span&gt;&lt;/div&gt;" style="rounded=1;whiteSpace=wrap;html=1;" parent="1" vertex="1">
          <mxGeometry x="666" y="170" width="120" height="60" as="geometry" />
        </mxCell>
        <mxCell id="qKud7y2XaxuHcWD2_8YC-17" value="Capacitatieve BVH&amp;nbsp;&lt;span style=&quot;background-color: transparent; color: light-dark(rgb(0, 0, 0), rgb(255, 255, 255));&quot;&gt;sensor&lt;/span&gt;&lt;div&gt;&lt;span style=&quot;background-color: transparent;&quot;&gt;SEN0193&lt;/span&gt;&lt;/div&gt;" style="rounded=1;whiteSpace=wrap;html=1;" parent="1" vertex="1">
          <mxGeometry x="666" y="250" width="120" height="60" as="geometry" />
        </mxCell>
        <mxCell id="qKud7y2XaxuHcWD2_8YC-18" value="" style="endArrow=classic;html=1;rounded=0;exitX=1;exitY=0.5;exitDx=0;exitDy=0;entryX=0;entryY=0.5;entryDx=0;entryDy=0;" parent="1" source="qKud7y2XaxuHcWD2_8YC-8" edge="1">
          <mxGeometry width="50" height="50" relative="1" as="geometry">
            <mxPoint x="590" y="290" as="sourcePoint" />
            <mxPoint x="379.9999999999998" y="279.9999999999999" as="targetPoint" />
          </mxGeometry>
        </mxCell>
        <mxCell id="qKud7y2XaxuHcWD2_8YC-20" value="analoge PIN&lt;div&gt;(analogRead())&lt;/div&gt;" style="endArrow=classic;html=1;rounded=0;exitX=0;exitY=0.5;exitDx=0;exitDy=0;entryX=1;entryY=0.5;entryDx=0;entryDy=0;" parent="1" source="qKud7y2XaxuHcWD2_8YC-17" target="qKud7y2XaxuHcWD2_8YC-9" edge="1">
          <mxGeometry width="50" height="50" relative="1" as="geometry">
            <mxPoint x="320" y="290" as="sourcePoint" />
            <mxPoint x="610" y="310" as="targetPoint" />
          </mxGeometry>
        </mxCell>
        <mxCell id="qKud7y2XaxuHcWD2_8YC-21" value="" style="endArrow=classic;html=1;rounded=0;entryX=1;entryY=0.5;entryDx=0;entryDy=0;exitX=0;exitY=0.5;exitDx=0;exitDy=0;" parent="1" source="qKud7y2XaxuHcWD2_8YC-16" target="qKud7y2XaxuHcWD2_8YC-9" edge="1">
          <mxGeometry width="50" height="50" relative="1" as="geometry">
            <mxPoint x="600" y="180" as="sourcePoint" />
            <mxPoint x="410" y="300" as="targetPoint" />
          </mxGeometry>
        </mxCell>
        <mxCell id="qKud7y2XaxuHcWD2_8YC-22" value="analoge PIN&lt;div&gt;(analogRead())&lt;/div&gt;" style="edgeLabel;html=1;align=center;verticalAlign=middle;resizable=0;points=[];" parent="qKud7y2XaxuHcWD2_8YC-21" vertex="1" connectable="0">
          <mxGeometry x="-0.1695" relative="1" as="geometry">
            <mxPoint as="offset" />
          </mxGeometry>
        </mxCell>
        <mxCell id="qKud7y2XaxuHcWD2_8YC-28" value="WATERDICHTE&lt;div&gt;BEHUIZING&lt;/div&gt;" style="text;html=1;align=center;verticalAlign=middle;whiteSpace=wrap;rounded=0;" parent="1" vertex="1">
          <mxGeometry x="140" y="120" width="60" height="30" as="geometry" />
        </mxCell>
        <mxCell id="qKud7y2XaxuHcWD2_8YC-31" value="Waterpomp" style="rounded=1;whiteSpace=wrap;html=1;" parent="1" vertex="1">
          <mxGeometry x="660" y="480" width="120" height="60" as="geometry" />
        </mxCell>
        <mxCell id="qKud7y2XaxuHcWD2_8YC-33" value="WATERRESERVOIR" style="text;html=1;align=center;verticalAlign=middle;whiteSpace=wrap;rounded=0;" parent="1" vertex="1">
          <mxGeometry x="660" y="430" width="60" height="30" as="geometry" />
        </mxCell>
        <mxCell id="qKud7y2XaxuHcWD2_8YC-35" value="WATERSLANG" style="shape=flexArrow;endArrow=classic;html=1;rounded=0;exitX=0.5;exitY=0;exitDx=0;exitDy=0;entryX=0.5;entryY=1;entryDx=0;entryDy=0;" parent="1" source="qKud7y2XaxuHcWD2_8YC-31" target="qKud7y2XaxuHcWD2_8YC-12" edge="1">
          <mxGeometry width="50" height="50" relative="1" as="geometry">
            <mxPoint x="690" y="360" as="sourcePoint" />
            <mxPoint x="730" y="340.0000000000001" as="targetPoint" />
          </mxGeometry>
        </mxCell>
        <mxCell id="qKud7y2XaxuHcWD2_8YC-40" style="edgeStyle=orthogonalEdgeStyle;rounded=0;orthogonalLoop=1;jettySize=auto;html=1;exitX=0.5;exitY=1;exitDx=0;exitDy=0;entryX=0;entryY=0.75;entryDx=0;entryDy=0;" parent="1" source="qKud7y2XaxuHcWD2_8YC-37" target="qKud7y2XaxuHcWD2_8YC-31" edge="1">
          <mxGeometry relative="1" as="geometry" />
        </mxCell>
        <mxCell id="qKud7y2XaxuHcWD2_8YC-45" value="Aansluiting&lt;div&gt;(aan/uit)&lt;/div&gt;" style="edgeLabel;html=1;align=center;verticalAlign=middle;resizable=0;points=[];" parent="qKud7y2XaxuHcWD2_8YC-40" vertex="1" connectable="0">
          <mxGeometry x="-0.1658" y="1" relative="1" as="geometry">
            <mxPoint x="25" as="offset" />
          </mxGeometry>
        </mxCell>
        <mxCell id="qKud7y2XaxuHcWD2_8YC-37" value="RELAIS" style="rounded=1;whiteSpace=wrap;html=1;" parent="1" vertex="1">
          <mxGeometry x="380" y="350" width="120" height="60" as="geometry" />
        </mxCell>
        <mxCell id="qKud7y2XaxuHcWD2_8YC-50" style="edgeStyle=orthogonalEdgeStyle;rounded=0;orthogonalLoop=1;jettySize=auto;html=1;exitX=0.5;exitY=1;exitDx=0;exitDy=0;entryX=0;entryY=0.25;entryDx=0;entryDy=0;" parent="1" source="qKud7y2XaxuHcWD2_8YC-48" target="qKud7y2XaxuHcWD2_8YC-9" edge="1">
          <mxGeometry relative="1" as="geometry">
            <Array as="points">
              <mxPoint x="260" y="380" />
              <mxPoint x="340" y="380" />
              <mxPoint x="340" y="255" />
            </Array>
          </mxGeometry>
        </mxCell>
        <mxCell id="qKud7y2XaxuHcWD2_8YC-51" value="Digitale PIN (read)" style="edgeLabel;html=1;align=center;verticalAlign=middle;resizable=0;points=[];" parent="qKud7y2XaxuHcWD2_8YC-50" vertex="1" connectable="0">
          <mxGeometry x="-0.2583" y="-1" relative="1" as="geometry">
            <mxPoint as="offset" />
          </mxGeometry>
        </mxCell>
        <mxCell id="qKud7y2XaxuHcWD2_8YC-48" value="PANIC BUTTON" style="rounded=1;whiteSpace=wrap;html=1;" parent="1" vertex="1">
          <mxGeometry x="200" y="400" width="120" height="60" as="geometry" />
        </mxCell>
        <mxCell id="qKud7y2XaxuHcWD2_8YC-55" style="edgeStyle=orthogonalEdgeStyle;rounded=0;orthogonalLoop=1;jettySize=auto;html=1;exitX=0.5;exitY=0;exitDx=0;exitDy=0;exitPerimeter=0;entryX=0.5;entryY=1;entryDx=0;entryDy=0;" parent="1" source="qKud7y2XaxuHcWD2_8YC-52" target="qKud7y2XaxuHcWD2_8YC-48" edge="1">
          <mxGeometry relative="1" as="geometry">
            <Array as="points">
              <mxPoint x="55" y="500" />
              <mxPoint x="260" y="500" />
            </Array>
          </mxGeometry>
        </mxCell>
        <mxCell id="qKud7y2XaxuHcWD2_8YC-58" value="Dringend water geven" style="edgeLabel;html=1;align=center;verticalAlign=middle;resizable=0;points=[];" parent="qKud7y2XaxuHcWD2_8YC-55" vertex="1" connectable="0">
          <mxGeometry x="-0.6375" y="2" relative="1" as="geometry">
            <mxPoint x="66" y="2" as="offset" />
          </mxGeometry>
        </mxCell>
        <mxCell id="qKud7y2XaxuHcWD2_8YC-61" style="edgeStyle=orthogonalEdgeStyle;rounded=0;orthogonalLoop=1;jettySize=auto;html=1;exitX=1;exitY=1;exitDx=0;exitDy=0;exitPerimeter=0;entryX=1.007;entryY=0.914;entryDx=0;entryDy=0;entryPerimeter=0;" parent="1" source="qKud7y2XaxuHcWD2_8YC-52" target="qKud7y2XaxuHcWD2_8YC-12" edge="1">
          <mxGeometry relative="1" as="geometry">
            <mxPoint x="600" y="320" as="targetPoint" />
            <Array as="points">
              <mxPoint x="70" y="605" />
              <mxPoint x="840" y="605" />
              <mxPoint x="840" y="320" />
            </Array>
          </mxGeometry>
        </mxCell>
        <mxCell id="qKud7y2XaxuHcWD2_8YC-62" value="Meststoffen geven" style="edgeLabel;html=1;align=center;verticalAlign=middle;resizable=0;points=[];" parent="qKud7y2XaxuHcWD2_8YC-61" vertex="1" connectable="0">
          <mxGeometry x="0.9503" y="1" relative="1" as="geometry">
            <mxPoint x="-289" y="281" as="offset" />
          </mxGeometry>
        </mxCell>
        <mxCell id="qKud7y2XaxuHcWD2_8YC-52" value="Plantverzorger" style="shape=umlActor;verticalLabelPosition=bottom;verticalAlign=top;html=1;outlineConnect=0;" parent="1" vertex="1">
          <mxGeometry x="40" y="525" width="30" height="60" as="geometry" />
        </mxCell>
        <mxCell id="qKud7y2XaxuHcWD2_8YC-63" style="edgeStyle=orthogonalEdgeStyle;rounded=0;orthogonalLoop=1;jettySize=auto;html=1;exitX=1;exitY=0.3333333333333333;exitDx=0;exitDy=0;exitPerimeter=0;entryX=0;entryY=0.5;entryDx=0;entryDy=0;" parent="1" source="qKud7y2XaxuHcWD2_8YC-53" target="qKud7y2XaxuHcWD2_8YC-26" edge="1">
          <mxGeometry relative="1" as="geometry" />
        </mxCell>
        <mxCell id="qKud7y2XaxuHcWD2_8YC-64" value="Kan elke component&amp;nbsp;&lt;div&gt;fysiek beheren of&amp;nbsp;&lt;/div&gt;&lt;div&gt;aanpassen /configurenren&lt;/div&gt;" style="edgeLabel;html=1;align=center;verticalAlign=middle;resizable=0;points=[];" parent="qKud7y2XaxuHcWD2_8YC-63" vertex="1" connectable="0">
          <mxGeometry x="-0.277" y="-2" relative="1" as="geometry">
            <mxPoint x="20" y="-2" as="offset" />
          </mxGeometry>
        </mxCell>
        <mxCell id="qKud7y2XaxuHcWD2_8YC-69" style="edgeStyle=orthogonalEdgeStyle;rounded=0;orthogonalLoop=1;jettySize=auto;html=1;exitX=0.5;exitY=0;exitDx=0;exitDy=0;exitPerimeter=0;entryX=0.5;entryY=0;entryDx=0;entryDy=0;" parent="1" source="qKud7y2XaxuHcWD2_8YC-53" target="qKud7y2XaxuHcWD2_8YC-12" edge="1">
          <mxGeometry relative="1" as="geometry">
            <mxPoint x="720" y="60" as="targetPoint" />
            <Array as="points">
              <mxPoint x="-55" y="10" />
              <mxPoint x="720" y="10" />
            </Array>
            <mxPoint x="-55" y="200" as="sourcePoint" />
          </mxGeometry>
        </mxCell>
        <mxCell id="qKud7y2XaxuHcWD2_8YC-73" style="edgeStyle=orthogonalEdgeStyle;rounded=0;orthogonalLoop=1;jettySize=auto;html=1;exitX=1;exitY=1;exitDx=0;exitDy=0;exitPerimeter=0;entryX=0.5;entryY=1;entryDx=0;entryDy=0;" parent="1" source="qKud7y2XaxuHcWD2_8YC-53" target="qKud7y2XaxuHcWD2_8YC-31" edge="1">
          <mxGeometry relative="1" as="geometry">
            <Array as="points">
              <mxPoint x="-40" y="680" />
              <mxPoint x="720" y="680" />
            </Array>
          </mxGeometry>
        </mxCell>
        <mxCell id="qKud7y2XaxuHcWD2_8YC-77" style="edgeStyle=orthogonalEdgeStyle;rounded=0;orthogonalLoop=1;jettySize=auto;html=1;exitX=0;exitY=0.3333333333333333;exitDx=0;exitDy=0;exitPerimeter=0;entryX=0;entryY=0.5;entryDx=0;entryDy=0;" parent="1" source="qKud7y2XaxuHcWD2_8YC-53" target="qKud7y2XaxuHcWD2_8YC-76" edge="1">
          <mxGeometry relative="1" as="geometry" />
        </mxCell>
        <mxCell id="qKud7y2XaxuHcWD2_8YC-53" value="Technieker" style="shape=umlActor;verticalLabelPosition=bottom;verticalAlign=top;html=1;outlineConnect=0;" parent="1" vertex="1">
          <mxGeometry x="-70" y="250" width="30" height="60" as="geometry" />
        </mxCell>
        <mxCell id="qKud7y2XaxuHcWD2_8YC-59" style="edgeStyle=orthogonalEdgeStyle;rounded=0;orthogonalLoop=1;jettySize=auto;html=1;exitX=1;exitY=0.3333333333333333;exitDx=0;exitDy=0;exitPerimeter=0;entryX=0.009;entryY=0.797;entryDx=0;entryDy=0;entryPerimeter=0;" parent="1" source="qKud7y2XaxuHcWD2_8YC-52" target="qKud7y2XaxuHcWD2_8YC-30" edge="1">
          <mxGeometry relative="1" as="geometry" />
        </mxCell>
        <mxCell id="qKud7y2XaxuHcWD2_8YC-60" value="Water bijvullen" style="edgeLabel;html=1;align=center;verticalAlign=middle;resizable=0;points=[];" parent="qKud7y2XaxuHcWD2_8YC-59" vertex="1" connectable="0">
          <mxGeometry x="-0.1499" relative="1" as="geometry">
            <mxPoint x="30" as="offset" />
          </mxGeometry>
        </mxCell>
        <mxCell id="qKud7y2XaxuHcWD2_8YC-72" value="Kan elke component&amp;nbsp;&lt;div&gt;fysiek beheren of&amp;nbsp;&lt;/div&gt;&lt;div&gt;aanpassen /configurenren&lt;/div&gt;" style="edgeLabel;html=1;align=center;verticalAlign=middle;resizable=0;points=[];" parent="1" vertex="1" connectable="0">
          <mxGeometry x="319.9964181111092" y="9.995147031755408" as="geometry" />
        </mxCell>
        <mxCell id="qKud7y2XaxuHcWD2_8YC-74" value="Kan elke component&amp;nbsp;&lt;div&gt;fysiek beheren of&amp;nbsp;&lt;/div&gt;&lt;div&gt;aanpassen /configurenren&lt;/div&gt;" style="edgeLabel;html=1;align=center;verticalAlign=middle;resizable=0;points=[];" parent="1" vertex="1" connectable="0">
          <mxGeometry x="299.9964181111092" y="679.9951470317553" as="geometry" />
        </mxCell>
        <mxCell id="qKud7y2XaxuHcWD2_8YC-75" value="Kan elke component&amp;nbsp;&lt;div&gt;fysiek beheren of&amp;nbsp;&lt;/div&gt;&lt;div&gt;aanpassen /configurenren&lt;/div&gt;" style="edgeLabel;html=1;align=center;verticalAlign=middle;resizable=0;points=[];" parent="1" vertex="1" connectable="0">
          <mxGeometry x="-40.003581888890764" y="459.99514703175544" as="geometry" />
        </mxCell>
        <mxCell id="qKud7y2XaxuHcWD2_8YC-78" style="edgeStyle=orthogonalEdgeStyle;rounded=0;orthogonalLoop=1;jettySize=auto;html=1;exitX=1;exitY=0.5;exitDx=0;exitDy=0;entryX=0.977;entryY=0.046;entryDx=0;entryDy=0;entryPerimeter=0;" parent="1" source="qKud7y2XaxuHcWD2_8YC-76" edge="1">
          <mxGeometry relative="1" as="geometry">
            <mxPoint x="400.00000000000017" y="-105.83999999999996" as="sourcePoint" />
            <mxPoint x="502.6699999999998" y="239.9600000000002" as="targetPoint" />
            <Array as="points">
              <mxPoint x="525" y="-115" />
              <mxPoint x="525" y="240" />
            </Array>
          </mxGeometry>
        </mxCell>
        <mxCell id="qKud7y2XaxuHcWD2_8YC-82" value="Configuratie +&lt;div&gt;code opladen&lt;/div&gt;&lt;div&gt;(usb-c)&lt;/div&gt;" style="edgeLabel;html=1;align=center;verticalAlign=middle;resizable=0;points=[];" parent="qKud7y2XaxuHcWD2_8YC-78" vertex="1" connectable="0">
          <mxGeometry x="-0.1735" y="-2" relative="1" as="geometry">
            <mxPoint y="-26" as="offset" />
          </mxGeometry>
        </mxCell>
        <mxCell id="qKud7y2XaxuHcWD2_8YC-76" value="" style="rounded=0;whiteSpace=wrap;html=1;fillColor=#f8cecc;strokeColor=#b85450;" parent="1" vertex="1">
          <mxGeometry x="180" y="-180" width="215" height="130" as="geometry" />
        </mxCell>
        <mxCell id="qKud7y2XaxuHcWD2_8YC-79" value="LAPTOP" style="text;html=1;align=center;verticalAlign=middle;whiteSpace=wrap;rounded=0;" parent="1" vertex="1">
          <mxGeometry x="180" y="-130" width="60" height="30" as="geometry" />
        </mxCell>
        <mxCell id="qKud7y2XaxuHcWD2_8YC-80" value="VS CODE" style="rounded=1;whiteSpace=wrap;html=1;" parent="1" vertex="1">
          <mxGeometry x="240" y="-145" width="120" height="60" as="geometry" />
        </mxCell>
        <mxCell id="paPwTSUmMhCrT0wcbQci-2" style="edgeStyle=orthogonalEdgeStyle;rounded=0;orthogonalLoop=1;jettySize=auto;html=1;exitX=0.5;exitY=1;exitDx=0;exitDy=0;entryX=0.083;entryY=0;entryDx=0;entryDy=0;entryPerimeter=0;" edge="1" parent="1" source="z1A3XPoSgk_9IWkxE7o5-2" target="qKud7y2XaxuHcWD2_8YC-9">
          <mxGeometry relative="1" as="geometry">
            <Array as="points">
              <mxPoint x="280" y="240" />
            </Array>
          </mxGeometry>
        </mxCell>
        <mxCell id="paPwTSUmMhCrT0wcbQci-3" value="Rx Tx (HardwareSerial &amp;amp; TinyGPS++)" style="edgeLabel;html=1;align=center;verticalAlign=middle;resizable=0;points=[];" vertex="1" connectable="0" parent="paPwTSUmMhCrT0wcbQci-2">
          <mxGeometry x="-0.7963" relative="1" as="geometry">
            <mxPoint y="-1" as="offset" />
          </mxGeometry>
        </mxCell>
        <mxCell id="z1A3XPoSgk_9IWkxE7o5-2" value="GPS" style="rounded=1;whiteSpace=wrap;html=1;" parent="1" vertex="1">
          <mxGeometry x="220" y="130" width="120" height="40" as="geometry" />
        </mxCell>
        <mxCell id="qKud7y2XaxuHcWD2_8YC-19" value="Digitale PIN (OneWire &amp;amp; DallasTemperature)" style="endArrow=classic;html=1;rounded=0;exitX=0.5;exitY=1;exitDx=0;exitDy=0;entryX=0.5;entryY=0;entryDx=0;entryDy=0;" parent="1" source="qKud7y2XaxuHcWD2_8YC-10" target="qKud7y2XaxuHcWD2_8YC-9" edge="1">
          <mxGeometry x="0.1429" width="50" height="50" relative="1" as="geometry">
            <mxPoint x="310" y="280" as="sourcePoint" />
            <mxPoint x="390" y="280" as="targetPoint" />
            <mxPoint as="offset" />
          </mxGeometry>
        </mxCell>
      </root>
    </mxGraphModel>
  </diagram>
</mxfile>
